<?xml version="1.0" encoding="utf-8"?>
<!-- Generator: Adobe Illustrator 16.0.2, SVG Export Plug-In . SVG Version: 6.00 Build 0)  -->
<!DOCTYPE svg PUBLIC "-//W3C//DTD SVG 1.1//EN" "http://www.w3.org/Graphics/SVG/1.1/DTD/svg11.dtd">
<svg version="1.1" id="Layer_1" xmlns="http://www.w3.org/2000/svg" xmlns:xlink="http://www.w3.org/1999/xlink" x="0px" y="0px"
	 width="841.89px" height="595.275px" viewBox="0 0 841.89 595.275" enable-background="new 0 0 841.89 595.275"
	 xml:space="preserve">
<path fill="#FFFFFF" d="M631.879,303.002h29.407c-0.476-3.874-1.937-6.85-4.402-8.945c-2.465-2.078-5.723-3.117-9.773-3.117
	c-4.05,0-7.396,1.04-10.036,3.117C634.433,296.152,632.706,299.128,631.879,303.002 M647.551,336.195
	c-5.582,0-10.424-1.127-14.563-3.399c-4.139-2.253-7.325-5.458-9.562-9.597c-2.236-4.138-3.346-9.016-3.346-14.65
	c0-5.582,1.109-10.407,3.311-14.492c2.201-4.068,5.318-7.22,9.368-9.456s8.84-3.346,14.351-3.346c7.872,0,14.105,2.307,18.72,6.903
	c4.596,4.613,6.902,10.882,6.902,18.806v4.402h-41.206c0.405,4.808,2.008,8.522,4.809,11.129c2.781,2.624,6.497,3.927,11.128,3.927
	c6.868,0,11.146-2.589,12.855-7.748h12.149c-1.285,5.512-4.12,9.809-8.487,12.89C659.596,334.646,654.119,336.195,647.551,336.195z
	 M599.538,335.139V261.18h11.975v73.958H599.538z M575.65,335.139v-52.828h11.974v52.828H575.65z M513.021,335.139V261.18h11.975
	v29.231h0.352c3.399-6.04,9.245-9.068,17.521-9.068c6.639,0,11.903,1.972,15.813,5.935c3.892,3.961,5.847,9.262,5.847,15.9v31.961
	h-11.974v-29.848c0-8.928-4.579-13.383-13.735-13.383c-9.21,0-13.823,4.455-13.823,13.383v29.848H513.021z M477.688,325.894
	c4.931,0,8.699-1.532,11.322-4.578c2.606-3.047,3.909-7.255,3.909-12.591c0-5.335-1.303-9.544-3.909-12.59
	c-2.623-3.046-6.392-4.578-11.322-4.578c-4.402,0-7.924,1.268-10.565,3.786c-2.642,2.518-3.962,5.934-3.962,10.213v6.339
	c0,4.279,1.32,7.695,3.962,10.214C469.764,324.626,473.285,325.894,477.688,325.894z M451.186,356.27v-61.896h-6.075v-12.063h12.503
	v8.364h3.698c1.813-3.046,4.278-5.388,7.36-7.008c3.081-1.602,6.779-2.412,11.129-2.412c8.047,0,14.228,2.5,18.577,7.483
	c4.35,4.984,6.516,11.657,6.516,19.986c0,8.399-2.131,15.073-6.375,20.021c-4.261,4.966-10.178,7.449-17.75,7.449
	c-8.276,0-14.034-2.994-17.257-8.98h-0.352v29.055H451.186z M424.744,335.139v-52.828h11.975v52.828H424.744z M383.951,324.749
	c4.402,0,7.889-1.25,10.477-3.751c2.589-2.482,3.874-5.846,3.874-10.072v-5.547c0-4.173-1.303-7.501-3.909-10.002
	c-2.624-2.482-6.093-3.732-10.442-3.732c-4.878,0-8.664,1.461-11.393,4.402c-2.729,2.941-4.103,6.991-4.103,12.15
	c0,5.23,1.374,9.28,4.103,12.186C375.288,323.288,379.073,324.749,383.951,324.749z M383.071,357.326
	c-7.572,0-13.735-1.55-18.49-4.667c-4.754-3.116-7.572-7.431-8.452-12.942h12.678c1.462,5.229,6.128,7.836,14,7.836
	c5.106,0,9.016-1.18,11.71-3.521c2.694-2.342,4.05-5.759,4.05-10.213v-7.925h-0.44c-3.117,6.163-8.805,9.245-17.081,9.245
	c-4.983,0-9.315-1.109-12.978-3.311c-3.68-2.201-6.516-5.301-8.541-9.333c-2.025-4.015-3.046-8.787-3.046-14.299
	c0-8.275,2.254-14.844,6.745-19.687c4.49-4.843,10.653-7.255,18.524-7.255c4.279,0,7.977,0.81,11.094,2.412
	c3.117,1.62,5.582,3.962,7.396,7.008h3.698v-8.364h12.414v12.063h-6.075v39.708c0,7.396-2.359,13.118-7.079,17.169
	C398.461,355.301,391.752,357.326,383.071,357.326z M335.674,335.139v-52.828h11.974v52.828H335.674z M294.617,325.894
	c4.455,0,8.012-1.268,10.653-3.785c2.641-2.519,3.962-5.935,3.962-10.214v-6.339c0-4.279-1.321-7.696-3.962-10.213
	c-2.642-2.519-6.199-3.786-10.653-3.786c-4.931,0-8.682,1.532-11.27,4.578s-3.875,7.255-3.875,12.59
	c0,5.336,1.286,9.544,3.875,12.591C285.936,324.361,289.687,325.894,294.617,325.894z M292.592,336.195
	c-8.047,0-14.228-2.501-18.578-7.484s-6.515-11.657-6.515-19.986c0-8.399,2.13-15.073,6.392-20.039
	c4.244-4.948,10.125-7.431,17.644-7.431c8.276,0,14.052,2.994,17.345,8.98h0.352V261.18h11.974v61.896h5.987v12.063h-12.415v-8.364
	h-3.698c-1.814,3.046-4.261,5.388-7.343,6.991C300.657,335.385,296.941,336.195,292.592,336.195z"/>
<rect x="335.674" y="255.542" fill-rule="evenodd" clip-rule="evenodd" fill="#E8AB4A" width="11.974" height="11.974"/>
<rect x="424.744" y="262.282" fill-rule="evenodd" clip-rule="evenodd" fill="#EB4254" width="11.975" height="11.975"/>
<rect x="575.65" y="249.21" fill-rule="evenodd" clip-rule="evenodd" fill="#544AE8" width="11.974" height="11.975"/>
<rect x="238.272" y="332.723" fill-rule="evenodd" clip-rule="evenodd" fill="#FFA600" width="10.78" height="10.78"/>
<rect x="238.272" y="305.076" fill-rule="evenodd" clip-rule="evenodd" fill="#FF4A61" width="10.78" height="10.78"/>
<rect x="238.272" y="263.607" fill-rule="evenodd" clip-rule="evenodd" fill="#7800DE" width="10.78" height="10.78"/>
<rect x="224.449" y="305.076" fill-rule="evenodd" clip-rule="evenodd" fill="#FF4A61" width="10.78" height="10.78"/>
<rect x="224.449" y="291.253" fill-rule="evenodd" clip-rule="evenodd" fill="#E80094" width="10.78" height="10.78"/>
<rect x="169.157" y="305.076" fill-rule="evenodd" clip-rule="evenodd" fill="#FF4A61" width="10.78" height="10.78"/>
<rect x="169.157" y="291.253" fill-rule="evenodd" clip-rule="evenodd" fill="#E80094" width="10.78" height="10.78"/>
<rect x="182.98" y="346.545" fill-rule="evenodd" clip-rule="evenodd" fill="#EDCF00" width="10.78" height="10.78"/>
<rect x="182.98" y="332.723" fill-rule="evenodd" clip-rule="evenodd" fill="#FFA600" width="10.78" height="10.78"/>
<rect x="182.98" y="305.076" fill-rule="evenodd" clip-rule="evenodd" fill="#FF4A61" width="10.78" height="10.78"/>
<rect x="182.98" y="291.253" fill-rule="evenodd" clip-rule="evenodd" fill="#E80094" width="10.78" height="10.78"/>
<rect x="182.98" y="277.43" fill-rule="evenodd" clip-rule="evenodd" fill="#B500C2" width="10.78" height="10.78"/>
<rect x="182.98" y="263.607" fill-rule="evenodd" clip-rule="evenodd" fill="#7800DE" width="10.78" height="10.78"/>
<rect x="196.803" y="346.545" fill-rule="evenodd" clip-rule="evenodd" fill="#EDCF00" width="10.78" height="10.78"/>
<rect x="196.803" y="291.253" fill-rule="evenodd" clip-rule="evenodd" fill="#E80094" width="10.78" height="10.78"/>
<rect x="196.803" y="277.43" fill-rule="evenodd" clip-rule="evenodd" fill="#B500C2" width="10.78" height="10.78"/>
<rect x="196.803" y="263.607" fill-rule="evenodd" clip-rule="evenodd" fill="#7800DE" width="10.78" height="10.78"/>
<rect x="196.803" y="249.784" fill-rule="evenodd" clip-rule="evenodd" fill="#2E00E3" width="10.78" height="10.78"/>
<rect x="210.626" y="305.076" fill-rule="evenodd" clip-rule="evenodd" fill="#FF4A61" width="10.78" height="10.78"/>
<rect x="210.626" y="291.253" fill-rule="evenodd" clip-rule="evenodd" fill="#E80094" width="10.78" height="10.78"/>
<rect x="210.626" y="277.43" fill-rule="evenodd" clip-rule="evenodd" fill="#B500C2" width="10.78" height="10.78"/>
<rect x="221.688" y="237.95" fill-rule="evenodd" clip-rule="evenodd" fill="#2E00E3" width="10.78" height="10.78"/>
<rect x="224.449" y="332.723" fill-rule="evenodd" clip-rule="evenodd" fill="#FFA600" width="10.78" height="10.78"/>
<rect x="224.449" y="346.545" fill-rule="evenodd" clip-rule="evenodd" fill="#EDCF00" width="10.78" height="10.78"/>
<rect x="169.157" y="332.723" fill-rule="evenodd" clip-rule="evenodd" fill="#FFA600" width="10.78" height="10.78"/>
<rect x="238.272" y="318.899" fill-rule="evenodd" clip-rule="evenodd" fill="#FF8040" width="10.78" height="10.78"/>
<rect x="169.157" y="318.899" fill-rule="evenodd" clip-rule="evenodd" fill="#FF8040" width="10.78" height="10.78"/>
<rect x="182.98" y="318.899" fill-rule="evenodd" clip-rule="evenodd" fill="#FF8040" width="10.78" height="10.78"/>
<rect x="210.626" y="318.899" fill-rule="evenodd" clip-rule="evenodd" fill="#FF8040" width="10.78" height="10.78"/>
<rect x="224.449" y="318.899" fill-rule="evenodd" clip-rule="evenodd" fill="#FF8040" width="10.78" height="10.78"/>
</svg>
