<?xml version="1.0" encoding="utf-8"?>
<!-- Generator: Adobe Illustrator 16.0.2, SVG Export Plug-In . SVG Version: 6.00 Build 0)  -->
<!DOCTYPE svg PUBLIC "-//W3C//DTD SVG 1.1//EN" "http://www.w3.org/Graphics/SVG/1.1/DTD/svg11.dtd">
<svg version="1.1" id="Layer_1" xmlns="http://www.w3.org/2000/svg" xmlns:xlink="http://www.w3.org/1999/xlink" x="0px" y="0px"
	 width="841.89px" height="595.275px" viewBox="0 0 841.89 595.275" enable-background="new 0 0 841.89 595.275"
	 xml:space="preserve">
<path fill="#FFFFFF" d="M633.084,281.026h28.54c-0.461-3.759-1.88-6.648-4.272-8.681c-2.393-2.017-5.554-3.025-9.484-3.025
	s-7.178,1.009-9.741,3.025C635.563,274.378,633.888,277.267,633.084,281.026 M648.294,313.24c-5.417,0-10.116-1.094-14.133-3.298
	c-4.016-2.188-7.108-5.299-9.279-9.314c-2.171-4.016-3.247-8.75-3.247-14.218c0-5.417,1.076-10.1,3.213-14.064
	c2.136-3.948,5.161-7.007,9.092-9.178c3.93-2.17,8.579-3.247,13.928-3.247c7.639,0,13.688,2.239,18.166,6.699
	c4.46,4.477,6.699,10.562,6.699,18.251v4.272h-39.989c0.393,4.666,1.948,8.271,4.665,10.8c2.7,2.547,6.307,3.812,10.801,3.812
	c6.665,0,10.817-2.513,12.476-7.52h11.791c-1.247,5.349-3.999,9.519-8.237,12.51C659.983,311.736,654.669,313.24,648.294,313.24z
	 M601.698,312.215v-71.776h11.621v71.776H601.698z M578.515,312.215v-51.269h11.62v51.269H578.515z M517.734,312.215v-71.776h11.621
	v28.369h0.342c3.298-5.861,8.972-8.801,17.004-8.801c6.442,0,11.553,1.914,15.346,5.759c3.777,3.845,5.674,8.989,5.674,15.431
	v31.018h-11.62v-28.966c0-8.665-4.443-12.988-13.33-12.988c-8.938,0-13.415,4.323-13.415,12.988v28.966H517.734z M483.442,303.243
	c4.785,0,8.442-1.487,10.988-4.443c2.529-2.957,3.794-7.041,3.794-12.219c0-5.178-1.265-9.262-3.794-12.219
	c-2.546-2.957-6.203-4.443-10.988-4.443c-4.271,0-7.69,1.23-10.254,3.674c-2.563,2.444-3.845,5.76-3.845,9.912v6.152
	c0,4.153,1.281,7.468,3.845,9.912C475.752,302.013,479.171,303.243,483.442,303.243z M457.723,332.723v-60.07h-5.896v-11.707h12.134
	v8.118h3.589c1.76-2.957,4.152-5.229,7.144-6.802c2.99-1.555,6.579-2.341,10.8-2.341c7.81,0,13.809,2.426,18.029,7.263
	c4.222,4.836,6.323,11.313,6.323,19.396c0,8.151-2.067,14.628-6.187,19.431c-4.135,4.819-9.878,7.229-17.226,7.229
	c-8.032,0-13.621-2.905-16.748-8.716h-0.342v28.198H457.723z M432.062,312.215v-51.269h11.62v51.269H432.062z M392.472,302.132
	c4.272,0,7.656-1.213,10.168-3.64c2.512-2.41,3.76-5.674,3.76-9.775v-5.383c0-4.05-1.264-7.28-3.794-9.708
	c-2.546-2.409-5.913-3.623-10.134-3.623c-4.734,0-8.408,1.418-11.057,4.272c-2.648,2.854-3.981,6.785-3.981,11.792
	c0,5.076,1.333,9.006,3.981,11.826C384.064,300.714,387.738,302.132,392.472,302.132z M391.618,333.748
	c-7.348,0-13.33-1.504-17.944-4.529c-4.614-3.024-7.348-7.212-8.203-12.561h12.304c1.419,5.075,5.947,7.604,13.586,7.604
	c4.956,0,8.75-1.145,11.365-3.418c2.614-2.272,3.93-5.588,3.93-9.911v-7.69h-0.427c-3.025,5.981-8.545,8.972-16.577,8.972
	c-4.836,0-9.04-1.076-12.595-3.213c-3.572-2.136-6.323-5.144-8.289-9.058c-1.965-3.896-2.956-8.527-2.956-13.876
	c0-8.032,2.187-14.406,6.545-19.106c4.358-4.7,10.339-7.041,17.978-7.041c4.153,0,7.741,0.786,10.766,2.341
	c3.025,1.572,5.417,3.845,7.178,6.802h3.589v-8.118h12.047v11.707h-5.895v38.537c0,7.178-2.29,12.731-6.87,16.662
	C406.554,331.782,400.043,333.748,391.618,333.748z M345.62,312.215v-51.269h11.621v51.269H345.62z M305.774,303.243
	c4.324,0,7.775-1.23,10.339-3.675c2.563-2.443,3.845-5.759,3.845-9.912v-6.152c0-4.152-1.282-7.468-3.845-9.912
	c-2.563-2.443-6.015-3.674-10.339-3.674c-4.785,0-8.425,1.486-10.938,4.443c-2.512,2.957-3.76,7.041-3.76,12.219
	c0,5.179,1.248,9.262,3.76,12.219C297.349,301.756,300.989,303.243,305.774,303.243z M303.809,313.24
	c-7.81,0-13.809-2.427-18.029-7.264c-4.221-4.836-6.323-11.313-6.323-19.396c0-8.152,2.068-14.628,6.204-19.448
	c4.119-4.802,9.826-7.211,17.124-7.211c8.032,0,13.637,2.905,16.833,8.715h0.342v-28.198h11.621v60.07h5.811v11.706h-12.048v-8.117
	h-3.589c-1.76,2.956-4.136,5.229-7.126,6.784C311.636,312.454,308.03,313.24,303.809,313.24z"/>
<rect x="345.62" y="234.967" fill-rule="evenodd" clip-rule="evenodd" fill="#E8AB4A" width="11.621" height="11.622"/>
<rect x="432.062" y="241.508" fill-rule="evenodd" clip-rule="evenodd" fill="#EB4254" width="11.62" height="11.621"/>
<rect x="578.515" y="228.822" fill-rule="evenodd" clip-rule="evenodd" fill="#544AE8" width="11.62" height="11.621"/>
<path fill="#FFFFFF" d="M672.671,348.105v2.387h-5.729v15.706h-2.51v-15.706h-5.741v-2.387H672.671z M656.673,361.681
	c-0.499,1.422-1.46,2.571-2.89,3.45c-1.43,0.883-3.058,1.322-4.884,1.322c-1.288,0-2.494-0.241-3.613-0.72
	c-1.124-0.482-2.084-1.137-2.886-1.964c-0.797-0.827-1.426-1.821-1.887-2.976c-0.456-1.159-0.685-2.391-0.685-3.691
	c0-1.038,0.143-2.024,0.436-2.967c0.288-0.943,0.706-1.792,1.253-2.55c0.547-0.754,1.188-1.417,1.925-1.981
	c0.736-0.56,1.572-0.994,2.512-1.297c0.938-0.305,1.92-0.456,2.945-0.456c1.74,0,3.308,0.405,4.698,1.21
	c1.396,0.811,2.352,1.861,2.873,3.157l-2.223,1.085c-0.426-0.926-1.124-1.666-2.089-2.222c-0.96-0.556-2.05-0.832-3.26-0.832
	c-1.262,0-2.39,0.298-3.381,0.896c-0.995,0.599-1.762,1.417-2.309,2.46c-0.547,1.041-0.822,2.209-0.822,3.496
	c0,2.003,0.607,3.661,1.826,4.975c1.214,1.318,2.777,1.977,4.686,1.977c1.279,0,2.421-0.31,3.424-0.926
	c1.008-0.62,1.705-1.447,2.102-2.48L656.673,361.681z M626.613,348.105h10.396v2.387h-7.886v4.957h7.029v2.373h-7.029v6.003h7.886
	v2.373h-10.396V348.105z M608.492,348.105h2.257l9.351,13.386v-13.386h2.484v18.093h-2.205l-9.376-13.363v13.363h-2.511V348.105z
	 M590.371,348.105h2.257l9.35,13.386v-13.386h2.485v18.093h-2.205l-9.376-13.363v13.363h-2.511V348.105z M581.233,351.151
	c-1.008-0.6-2.123-0.901-3.342-0.901c-1.223,0-2.334,0.302-3.346,0.901c-1.009,0.603-1.801,1.429-2.378,2.48
	c-0.577,1.05-0.865,2.209-0.865,3.471c0,1.96,0.633,3.609,1.898,4.944c1.267,1.34,2.83,2.007,4.69,2.007
	c1.856,0,3.42-0.667,4.686-2.007c1.267-1.335,1.899-2.984,1.899-4.944c0-1.262-0.288-2.421-0.865-3.471
	C583.034,352.58,582.241,351.754,581.233,351.151z M577.892,347.852c1.266,0,2.468,0.237,3.601,0.715
	c1.133,0.474,2.102,1.12,2.916,1.942c0.809,0.818,1.451,1.801,1.925,2.946c0.469,1.146,0.706,2.36,0.706,3.647
	c0,1.301-0.237,2.532-0.706,3.691c-0.474,1.154-1.116,2.148-1.925,2.976c-0.814,0.827-1.783,1.481-2.916,1.964
	c-1.133,0.479-2.335,0.72-3.601,0.72c-1.279,0-2.485-0.241-3.617-0.72c-1.129-0.482-2.103-1.137-2.907-1.964
	c-0.811-0.827-1.447-1.821-1.917-2.976c-0.474-1.159-0.706-2.391-0.706-3.691c0-1.719,0.396-3.282,1.188-4.694
	c0.797-1.413,1.895-2.528,3.295-3.338C574.627,348.257,576.182,347.852,577.892,347.852z M566.257,361.681
	c-0.5,1.422-1.461,2.571-2.891,3.45c-1.43,0.883-3.058,1.322-4.884,1.322c-1.288,0-2.494-0.241-3.613-0.72
	c-1.124-0.482-2.084-1.137-2.886-1.964c-0.797-0.827-1.425-1.821-1.886-2.976c-0.457-1.159-0.686-2.391-0.686-3.691
	c0-1.038,0.143-2.024,0.436-2.967c0.288-0.943,0.706-1.792,1.253-2.55c0.547-0.754,1.189-1.417,1.925-1.981
	c0.736-0.56,1.572-0.994,2.512-1.297c0.938-0.305,1.921-0.456,2.945-0.456c1.74,0,3.308,0.405,4.699,1.21
	c1.396,0.811,2.352,1.861,2.872,3.157l-2.222,1.085c-0.427-0.926-1.125-1.666-2.089-2.222c-0.961-0.556-2.05-0.832-3.261-0.832
	c-1.262,0-2.39,0.298-3.381,0.896c-0.995,0.599-1.762,1.417-2.309,2.46c-0.547,1.041-0.822,2.209-0.822,3.496
	c0,2.003,0.607,3.661,1.826,4.975c1.215,1.318,2.777,1.977,4.686,1.977c1.279,0,2.421-0.31,3.424-0.926
	c1.008-0.62,1.706-1.447,2.102-2.48L566.257,361.681z M538.772,366.453c-0.505,0-0.922-0.164-1.254-0.495
	c-0.336-0.328-0.499-0.741-0.499-1.236c0-0.479,0.163-0.888,0.499-1.224c0.332-0.336,0.749-0.504,1.254-0.504
	c0.486,0,0.903,0.168,1.244,0.504c0.34,0.336,0.508,0.745,0.508,1.224c0,0.486-0.168,0.899-0.504,1.231
	C539.686,366.285,539.268,366.453,538.772,366.453z M534.531,348.105v2.387h-5.728v15.706h-2.511v-15.706h-5.741v-2.387H534.531z
	 M518.533,361.681c-0.499,1.422-1.46,2.571-2.89,3.45c-1.43,0.883-3.058,1.322-4.884,1.322c-1.288,0-2.494-0.241-3.613-0.72
	c-1.124-0.482-2.085-1.137-2.886-1.964c-0.797-0.827-1.426-1.821-1.886-2.976c-0.457-1.159-0.686-2.391-0.686-3.691
	c0-1.038,0.143-2.024,0.436-2.967c0.288-0.943,0.706-1.792,1.253-2.55c0.547-0.754,1.188-1.417,1.925-1.981
	c0.736-0.56,1.572-0.994,2.511-1.297c0.939-0.305,1.921-0.456,2.946-0.456c1.74,0,3.308,0.405,4.699,1.21
	c1.395,0.811,2.352,1.861,2.872,3.157l-2.222,1.085c-0.427-0.926-1.125-1.666-2.089-2.222c-0.961-0.556-2.05-0.832-3.261-0.832
	c-1.262,0-2.391,0.298-3.381,0.896c-0.995,0.599-1.761,1.417-2.309,2.46c-0.547,1.041-0.822,2.209-0.822,3.496
	c0,2.003,0.607,3.661,1.826,4.975c1.214,1.318,2.777,1.977,4.686,1.977c1.279,0,2.42-0.31,3.424-0.926
	c1.008-0.62,1.706-1.447,2.102-2.48L518.533,361.681z M488.474,348.105h10.396v2.387h-7.885v4.957h7.028v2.373h-7.028v6.003h7.885
	v2.373h-10.396V348.105z M474.026,348.105h2.511v15.72h8.894v2.373h-11.404V348.105z M459.579,348.105h2.511v15.72h8.893v2.373
	h-11.403V348.105z M450.441,351.151c-1.008-0.6-2.123-0.901-3.342-0.901c-1.224,0-2.335,0.302-3.347,0.901
	c-1.008,0.603-1.8,1.429-2.377,2.48c-0.577,1.05-0.866,2.209-0.866,3.471c0,1.96,0.633,3.609,1.899,4.944
	c1.266,1.34,2.829,2.007,4.69,2.007c1.855,0,3.419-0.667,4.686-2.007c1.266-1.335,1.899-2.984,1.899-4.944
	c0-1.262-0.289-2.421-0.866-3.471C452.241,352.58,451.449,351.754,450.441,351.151z M447.1,347.852c1.266,0,2.467,0.237,3.6,0.715
	c1.133,0.474,2.102,1.12,2.916,1.942c0.81,0.818,1.451,1.801,1.926,2.946c0.469,1.146,0.706,2.36,0.706,3.647
	c0,1.301-0.237,2.532-0.706,3.691c-0.475,1.154-1.116,2.148-1.926,2.976c-0.814,0.827-1.783,1.481-2.916,1.964
	c-1.133,0.479-2.334,0.72-3.6,0.72c-1.279,0-2.485-0.241-3.618-0.72c-1.128-0.482-2.102-1.137-2.907-1.964
	c-0.81-0.827-1.447-1.821-1.916-2.976c-0.474-1.159-0.707-2.391-0.707-3.691c0-1.719,0.396-3.282,1.189-4.694
	c0.797-1.413,1.895-2.528,3.294-3.338C443.835,348.257,445.39,347.852,447.1,347.852z M435.464,361.681
	c-0.5,1.422-1.46,2.571-2.89,3.45c-1.43,0.883-3.058,1.322-4.885,1.322c-1.287,0-2.493-0.241-3.612-0.72
	c-1.124-0.482-2.085-1.137-2.886-1.964c-0.797-0.827-1.425-1.821-1.887-2.976c-0.456-1.159-0.685-2.391-0.685-3.691
	c0-1.038,0.142-2.024,0.435-2.967c0.289-0.943,0.706-1.792,1.253-2.55c0.547-0.754,1.188-1.417,1.925-1.981
	c0.736-0.56,1.572-0.994,2.511-1.297c0.939-0.305,1.921-0.456,2.945-0.456c1.741,0,3.309,0.405,4.699,1.21
	c1.396,0.811,2.352,1.861,2.873,3.157l-2.223,1.085c-0.426-0.926-1.124-1.666-2.089-2.222c-0.96-0.556-2.05-0.832-3.261-0.832
	c-1.262,0-2.39,0.298-3.38,0.896c-0.995,0.599-1.762,1.417-2.309,2.46c-0.547,1.041-0.822,2.209-0.822,3.496
	c0,2.003,0.607,3.661,1.826,4.975c1.214,1.318,2.777,1.977,4.685,1.977c1.279,0,2.421-0.31,3.425-0.926
	c1.008-0.62,1.705-1.447,2.102-2.48L435.464,361.681z M407.98,366.453c-0.504,0-0.922-0.164-1.254-0.495
	c-0.336-0.328-0.5-0.741-0.5-1.236c0-0.479,0.164-0.888,0.5-1.224c0.332-0.336,0.75-0.504,1.254-0.504
	c0.486,0,0.904,0.168,1.244,0.504s0.508,0.745,0.508,1.224c0,0.486-0.168,0.899-0.504,1.231
	C408.893,366.285,408.475,366.453,407.98,366.453z M392.838,350.492l0.026,5.813h4.113c0.866,0,1.58-0.279,2.145-0.84
	c0.564-0.56,0.844-1.262,0.844-2.11c0-0.827-0.28-1.512-0.844-2.054c-0.564-0.539-1.279-0.81-2.145-0.81H392.838z M403.739,366.198
	h-2.989l-4.807-7.52h-3.079v7.52h-2.511v-18.093h6.675c1.521,0,2.808,0.505,3.868,1.512c1.055,1.013,1.581,2.258,1.581,3.738
	c0,1.301-0.345,2.412-1.034,3.325c-0.689,0.908-1.619,1.521-2.786,1.821L403.739,366.198z M376.47,348.105h10.396v2.387h-7.886
	v4.957h7.028v2.373h-7.028v6.003h7.886v2.373H376.47V348.105z M358.159,348.105h2.662l5.237,14.195l5.25-14.195h2.61l-6.826,18.093
	h-2.093L358.159,348.105z M350.46,351.151c-1.008-0.6-2.124-0.901-3.342-0.901c-1.223,0-2.334,0.302-3.346,0.901
	c-1.008,0.603-1.801,1.429-2.378,2.48c-0.577,1.05-0.865,2.209-0.865,3.471c0,1.96,0.633,3.609,1.899,4.944
	c1.267,1.34,2.83,2.007,4.69,2.007c1.856,0,3.419-0.667,4.686-2.007c1.267-1.335,1.9-2.984,1.9-4.944
	c0-1.262-0.289-2.421-0.866-3.471C352.26,352.58,351.468,351.754,350.46,351.151z M347.118,347.852c1.266,0,2.468,0.237,3.6,0.715
	c1.133,0.474,2.102,1.12,2.916,1.942c0.81,0.818,1.451,1.801,1.925,2.946c0.469,1.146,0.706,2.36,0.706,3.647
	c0,1.301-0.237,2.532-0.706,3.691c-0.474,1.154-1.115,2.148-1.925,2.976c-0.814,0.827-1.783,1.481-2.916,1.964
	c-1.132,0.479-2.334,0.72-3.6,0.72c-1.279,0-2.485-0.241-3.618-0.72c-1.128-0.482-2.102-1.137-2.907-1.964
	c-0.81-0.827-1.447-1.821-1.917-2.976c-0.474-1.159-0.706-2.391-0.706-3.691c0-1.719,0.396-3.282,1.188-4.694
	c0.797-1.413,1.895-2.528,3.295-3.338C343.854,348.257,345.408,347.852,347.118,347.852z M335.483,361.681
	c-0.5,1.422-1.46,2.571-2.89,3.45c-1.43,0.883-3.058,1.322-4.884,1.322c-1.288,0-2.494-0.241-3.613-0.72
	c-1.124-0.482-2.084-1.137-2.886-1.964c-0.797-0.827-1.425-1.821-1.886-2.976c-0.457-1.159-0.685-2.391-0.685-3.691
	c0-1.038,0.142-2.024,0.435-2.967c0.289-0.943,0.706-1.792,1.253-2.55c0.547-0.754,1.189-1.417,1.925-1.981
	c0.736-0.56,1.572-0.994,2.511-1.297c0.939-0.305,1.921-0.456,2.946-0.456c1.74,0,3.308,0.405,4.699,1.21
	c1.396,0.811,2.352,1.861,2.873,3.157l-2.222,1.085c-0.427-0.926-1.125-1.666-2.089-2.222c-0.961-0.556-2.05-0.832-3.261-0.832
	c-1.262,0-2.39,0.298-3.38,0.896c-0.995,0.599-1.762,1.417-2.309,2.46c-0.547,1.041-0.823,2.209-0.823,3.496
	c0,2.003,0.607,3.661,1.826,4.975c1.214,1.318,2.777,1.977,4.686,1.977c1.279,0,2.42-0.31,3.424-0.926
	c1.008-0.62,1.706-1.447,2.102-2.48L335.483,361.681z M309.704,347.852c1.133,0,2.261,0.229,3.372,0.689
	c1.116,0.456,1.964,1.046,2.545,1.761l-1.478,1.943c-0.563-0.616-1.261-1.103-2.089-1.46c-0.827-0.358-1.675-0.535-2.541-0.535
	c-0.96,0-1.749,0.229-2.36,0.682c-0.616,0.456-0.922,1.037-0.922,1.753c0,0.465,0.113,0.869,0.34,1.218
	c0.229,0.35,0.535,0.634,0.918,0.857c0.378,0.225,0.818,0.422,1.309,0.595c0.491,0.172,1.017,0.336,1.563,0.49
	c0.552,0.155,1.103,0.323,1.65,0.5c0.547,0.177,1.063,0.396,1.559,0.654c0.491,0.263,0.926,0.568,1.31,0.918
	c0.383,0.349,0.689,0.792,0.917,1.335c0.224,0.542,0.34,1.162,0.34,1.86c0,0.715-0.15,1.399-0.448,2.046
	c-0.302,0.646-0.715,1.214-1.249,1.701c-0.534,0.491-1.201,0.878-2.002,1.163c-0.797,0.284-1.667,0.431-2.61,0.431
	c-1.331,0-2.61-0.268-3.851-0.797c-1.236-0.53-2.261-1.22-3.075-2.067l1.576-1.856c1.649,1.546,3.432,2.321,5.349,2.321
	c1.103,0,2.002-0.271,2.7-0.813c0.698-0.543,1.046-1.245,1.046-2.102c0-0.444-0.112-0.836-0.335-1.172
	c-0.22-0.336-0.525-0.607-0.904-0.814c-0.384-0.206-0.823-0.392-1.314-0.555c-0.491-0.164-1.012-0.319-1.554-0.47
	c-0.543-0.146-1.081-0.306-1.624-0.479c-0.543-0.172-1.064-0.388-1.554-0.65c-0.491-0.258-0.931-0.564-1.314-0.908
	c-0.379-0.345-0.685-0.793-0.904-1.344c-0.224-0.551-0.336-1.181-0.336-1.887c0-1.438,0.564-2.631,1.693-3.583
	C306.551,348.33,307.977,347.852,309.704,347.852z M297.599,348.105h2.511v18.093h-2.511V348.105z M285.46,363.825
	c1.8,0,3.29-0.642,4.479-1.925c1.185-1.279,1.779-2.89,1.779-4.823c0-1.912-0.59-3.484-1.774-4.725
	c-1.18-1.24-2.675-1.86-4.483-1.86h-3.433v13.333H285.46z M285.31,348.105c1.245,0,2.42,0.229,3.523,0.681
	c1.107,0.452,2.059,1.077,2.859,1.86c0.801,0.788,1.43,1.736,1.891,2.852c0.465,1.115,0.698,2.309,0.698,3.579
	c0,1.288-0.233,2.493-0.698,3.626c-0.461,1.133-1.09,2.098-1.887,2.903c-0.792,0.801-1.744,1.434-2.855,1.898
	c-1.111,0.461-2.287,0.693-3.531,0.693h-5.792v-18.093H285.31z"/>
<rect x="250.65" y="339.006" fill-rule="evenodd" clip-rule="evenodd" fill="#FFA600" width="12.711" height="12.711"/>
<rect x="250.65" y="306.409" fill-rule="evenodd" clip-rule="evenodd" fill="#FF4A61" width="12.711" height="12.71"/>
<rect x="250.65" y="257.512" fill-rule="evenodd" clip-rule="evenodd" fill="#7800DE" width="12.71" height="12.711"/>
<rect x="234.352" y="306.409" fill-rule="evenodd" clip-rule="evenodd" fill="#FF4A61" width="12.71" height="12.71"/>
<rect x="234.352" y="290.11" fill-rule="evenodd" clip-rule="evenodd" fill="#E80094" width="12.711" height="12.711"/>
<rect x="169.157" y="306.409" fill-rule="evenodd" clip-rule="evenodd" fill="#FF4A61" width="12.711" height="12.71"/>
<rect x="169.157" y="290.11" fill-rule="evenodd" clip-rule="evenodd" fill="#E80094" width="12.711" height="12.711"/>
<rect x="185.456" y="355.305" fill-rule="evenodd" clip-rule="evenodd" fill="#EDCF00" width="12.711" height="12.711"/>
<rect x="185.456" y="339.006" fill-rule="evenodd" clip-rule="evenodd" fill="#FFA600" width="12.711" height="12.711"/>
<rect x="185.456" y="306.408" fill-rule="evenodd" clip-rule="evenodd" fill="#FF4A61" width="12.711" height="12.711"/>
<rect x="185.456" y="290.11" fill-rule="evenodd" clip-rule="evenodd" fill="#E80094" width="12.711" height="12.711"/>
<rect x="185.456" y="273.812" fill-rule="evenodd" clip-rule="evenodd" fill="#B500C2" width="12.711" height="12.71"/>
<rect x="185.456" y="257.512" fill-rule="evenodd" clip-rule="evenodd" fill="#7800DE" width="12.711" height="12.711"/>
<rect x="201.754" y="355.305" fill-rule="evenodd" clip-rule="evenodd" fill="#EDCF00" width="12.71" height="12.711"/>
<rect x="201.754" y="290.11" fill-rule="evenodd" clip-rule="evenodd" fill="#E80094" width="12.71" height="12.711"/>
<rect x="201.754" y="273.811" fill-rule="evenodd" clip-rule="evenodd" fill="#B500C2" width="12.711" height="12.711"/>
<rect x="201.754" y="257.513" fill-rule="evenodd" clip-rule="evenodd" fill="#7800DE" width="12.711" height="12.711"/>
<rect x="201.754" y="241.214" fill-rule="evenodd" clip-rule="evenodd" fill="#2E00E3" width="12.71" height="12.711"/>
<rect x="218.053" y="306.408" fill-rule="evenodd" clip-rule="evenodd" fill="#FF4A61" width="12.711" height="12.711"/>
<rect x="218.053" y="290.11" fill-rule="evenodd" clip-rule="evenodd" fill="#E80094" width="12.711" height="12.711"/>
<rect x="218.053" y="273.812" fill-rule="evenodd" clip-rule="evenodd" fill="#B500C2" width="12.711" height="12.71"/>
<rect x="231.096" y="227.26" fill-rule="evenodd" clip-rule="evenodd" fill="#2E00E3" width="12.71" height="12.711"/>
<rect x="234.352" y="339.006" fill-rule="evenodd" clip-rule="evenodd" fill="#FFA600" width="12.711" height="12.711"/>
<rect x="234.352" y="355.305" fill-rule="evenodd" clip-rule="evenodd" fill="#EDCF00" width="12.711" height="12.711"/>
<rect x="169.157" y="339.006" fill-rule="evenodd" clip-rule="evenodd" fill="#FFA600" width="12.711" height="12.711"/>
<rect x="250.65" y="322.707" fill-rule="evenodd" clip-rule="evenodd" fill="#FF8040" width="12.71" height="12.711"/>
<rect x="169.157" y="322.707" fill-rule="evenodd" clip-rule="evenodd" fill="#FF8040" width="12.711" height="12.711"/>
<rect x="185.456" y="322.707" fill-rule="evenodd" clip-rule="evenodd" fill="#FF8040" width="12.711" height="12.711"/>
<rect x="218.053" y="322.707" fill-rule="evenodd" clip-rule="evenodd" fill="#FF8040" width="12.711" height="12.711"/>
<rect x="234.352" y="322.707" fill-rule="evenodd" clip-rule="evenodd" fill="#FF8040" width="12.711" height="12.711"/>
</svg>
