<?xml version="1.0" encoding="utf-8"?>
<!-- Generator: Adobe Illustrator 16.0.2, SVG Export Plug-In . SVG Version: 6.00 Build 0)  -->
<!DOCTYPE svg PUBLIC "-//W3C//DTD SVG 1.1//EN" "http://www.w3.org/Graphics/SVG/1.1/DTD/svg11.dtd">
<svg version="1.1" id="Layer_1" xmlns="http://www.w3.org/2000/svg" xmlns:xlink="http://www.w3.org/1999/xlink" x="0px" y="0px"
	 width="841.89px" height="595.275px" viewBox="0 0 841.89 595.275" enable-background="new 0 0 841.89 595.275"
	 xml:space="preserve">
<path d="M636.17,280.785h28.955c-0.468-3.814-1.907-6.745-4.335-8.808c-2.427-2.046-5.635-3.069-9.622-3.069
	c-3.988,0-7.282,1.023-9.883,3.069C638.685,274.04,636.985,276.971,636.17,280.785 M651.602,313.468
	c-5.496,0-10.265-1.11-14.339-3.347c-4.074-2.22-7.212-5.375-9.414-9.449c-2.202-4.075-3.295-8.877-3.295-14.425
	c0-5.497,1.093-10.247,3.26-14.269c2.167-4.005,5.236-7.109,9.224-9.311c3.987-2.202,8.704-3.294,14.131-3.294
	c7.75,0,13.888,2.271,18.43,6.796c4.525,4.542,6.797,10.715,6.797,18.517v4.335h-40.57c0.398,4.733,1.977,8.391,4.732,10.958
	c2.74,2.583,6.398,3.866,10.958,3.866c6.762,0,10.975-2.549,12.657-7.629h11.963c-1.266,5.427-4.058,9.657-8.357,12.691
	C663.461,311.941,658.068,313.468,651.602,313.468z M604.327,312.427v-72.819h11.79v72.819H604.327z M580.807,312.427v-52.014h11.79
	v52.014H580.807z M519.143,312.427v-72.819h11.79v28.781h0.347c3.346-5.947,9.103-8.929,17.251-8.929
	c6.537,0,11.721,1.942,15.57,5.843c3.831,3.9,5.756,9.119,5.756,15.656v31.468h-11.79v-29.388c0-8.791-4.508-13.177-13.523-13.177
	c-9.068,0-13.61,4.387-13.61,13.177v29.388H519.143z M484.352,303.324c4.855,0,8.565-1.508,11.148-4.508
	c2.566-3,3.85-7.143,3.85-12.396s-1.283-9.397-3.85-12.397c-2.583-3-6.293-4.507-11.148-4.507c-4.334,0-7.802,1.248-10.402,3.727
	c-2.601,2.479-3.901,5.843-3.901,10.057v6.242c0,4.213,1.301,7.576,3.901,10.056S480.018,303.324,484.352,303.324z M458.258,333.232
	V272.29h-5.981v-11.877h12.311v8.236h3.641c1.786-3,4.213-5.306,7.247-6.9c3.034-1.578,6.676-2.375,10.958-2.375
	c7.924,0,14.009,2.462,18.292,7.369c4.282,4.907,6.415,11.478,6.415,19.679c0,8.27-2.099,14.841-6.277,19.713
	c-4.195,4.89-10.021,7.335-17.477,7.335c-8.148,0-13.818-2.948-16.991-8.843h-0.347v28.607H458.258z M432.223,312.427v-52.014h11.79
	v52.014H432.223z M392.058,302.197c4.334,0,7.768-1.231,10.316-3.693c2.549-2.444,3.814-5.755,3.814-9.917v-5.461
	c0-4.109-1.283-7.386-3.849-9.849c-2.583-2.444-5.999-3.675-10.282-3.675c-4.803,0-8.53,1.439-11.218,4.334
	c-2.687,2.896-4.04,6.883-4.04,11.963c0,5.149,1.353,9.137,4.04,11.999C383.528,300.759,387.255,302.197,392.058,302.197z
	 M391.191,334.272c-7.455,0-13.524-1.525-18.205-4.594c-4.682-3.069-7.455-7.317-8.322-12.744h12.483
	c1.44,5.149,6.034,7.716,13.785,7.716c5.027,0,8.876-1.162,11.53-3.468c2.652-2.306,3.987-5.67,3.987-10.056v-7.803h-0.433
	c-3.069,6.068-8.669,9.103-16.818,9.103c-4.907,0-9.172-1.092-12.778-3.26c-3.624-2.167-6.415-5.219-8.409-9.188
	c-1.994-3.953-2.999-8.652-2.999-14.079c0-8.148,2.219-14.616,6.64-19.384c4.421-4.768,10.49-7.143,18.24-7.143
	c4.213,0,7.854,0.797,10.922,2.375c3.069,1.595,5.497,3.9,7.282,6.9h3.641v-8.236h12.223v11.877h-5.981v39.097
	c0,7.281-2.323,12.917-6.97,16.904C406.345,332.279,399.739,334.272,391.191,334.272z M344.524,312.427v-52.014h11.79v52.014
	H344.524z M304.099,303.324c4.386,0,7.889-1.248,10.489-3.728s3.901-5.843,3.901-10.056v-6.242c0-4.213-1.3-7.577-3.901-10.057
	c-2.601-2.479-6.103-3.727-10.489-3.727c-4.855,0-8.548,1.508-11.097,4.507c-2.548,3-3.814,7.144-3.814,12.397
	s1.266,9.397,3.814,12.396C295.551,301.816,299.244,303.324,304.099,303.324z M302.105,313.468c-7.923,0-14.009-2.463-18.292-7.369
	c-4.283-4.907-6.416-11.478-6.416-19.679c0-8.271,2.098-14.841,6.294-19.731c4.178-4.872,9.969-7.316,17.372-7.316
	c8.149,0,13.836,2.947,17.078,8.842h0.347v-28.607h11.79v60.943h5.895v11.876h-12.223v-8.235h-3.641
	c-1.786,2.999-4.196,5.305-7.23,6.883C310.046,312.669,306.388,313.468,302.105,313.468z"/>
<rect x="344.524" y="234.055" fill-rule="evenodd" clip-rule="evenodd" fill="#E8AB4A" width="11.79" height="11.791"/>
<rect x="432.223" y="240.692" fill-rule="evenodd" clip-rule="evenodd" fill="#EB4254" width="11.79" height="11.79"/>
<rect x="580.807" y="227.821" fill-rule="evenodd" clip-rule="evenodd" fill="#544AE8" width="11.79" height="11.79"/>
<path d="M676.333,348.84v2.421h-5.812v15.935h-2.548v-15.935h-5.824v-2.421H676.333z M660.103,362.612
	c-0.508,1.442-1.481,2.608-2.933,3.5c-1.45,0.896-3.103,1.342-4.954,1.342c-1.308,0-2.53-0.245-3.666-0.729
	c-1.141-0.49-2.115-1.154-2.928-1.993c-0.809-0.839-1.446-1.848-1.914-3.019c-0.463-1.176-0.695-2.426-0.695-3.745
	c0-1.054,0.145-2.054,0.442-3.011c0.292-0.957,0.716-1.817,1.271-2.587c0.555-0.765,1.206-1.438,1.954-2.01
	c0.746-0.568,1.594-1.009,2.547-1.315c0.952-0.31,1.949-0.463,2.989-0.463c1.765,0,3.355,0.411,4.767,1.228
	c1.416,0.821,2.386,1.888,2.914,3.203l-2.255,1.101c-0.432-0.939-1.14-1.69-2.119-2.254c-0.974-0.563-2.08-0.844-3.307-0.844
	c-1.281,0-2.426,0.302-3.431,0.909c-1.01,0.607-1.787,1.438-2.342,2.495s-0.835,2.241-0.835,3.548c0,2.031,0.616,3.714,1.853,5.047
	c1.232,1.337,2.818,2.005,4.755,2.005c1.297,0,2.455-0.314,3.474-0.938c1.021-0.63,1.729-1.469,2.132-2.518L660.103,362.612z
	 M629.605,348.84h10.548v2.421h-8.001v5.028h7.131v2.408h-7.131v6.091h8.001v2.407h-10.548V348.84z M611.221,348.84h2.289
	l9.486,13.58v-13.58h2.521v18.355h-2.236l-9.513-13.558v13.558h-2.547V348.84z M592.836,348.84h2.289l9.486,13.58v-13.58h2.521
	v18.355h-2.238l-9.512-13.558v13.558h-2.547V348.84z M583.565,351.93c-1.022-0.607-2.154-0.914-3.391-0.914
	c-1.241,0-2.368,0.307-3.396,0.914c-1.022,0.611-1.826,1.45-2.411,2.517c-0.586,1.065-0.879,2.241-0.879,3.521
	c0,1.988,0.643,3.661,1.927,5.017c1.285,1.358,2.871,2.035,4.759,2.035c1.883,0,3.469-0.677,4.754-2.035
	c1.284-1.355,1.927-3.028,1.927-5.017c0-1.28-0.293-2.456-0.878-3.521C585.392,353.38,584.588,352.541,583.565,351.93z
	 M580.175,348.582c1.284,0,2.503,0.24,3.652,0.726c1.149,0.48,2.132,1.136,2.958,1.971c0.821,0.83,1.473,1.826,1.954,2.988
	c0.476,1.162,0.716,2.395,0.716,3.701c0,1.319-0.24,2.569-0.716,3.745c-0.481,1.171-1.133,2.18-1.954,3.019
	c-0.826,0.839-1.809,1.503-2.958,1.993c-1.149,0.484-2.368,0.729-3.652,0.729c-1.298,0-2.521-0.245-3.671-0.729
	c-1.145-0.49-2.132-1.154-2.949-1.993c-0.821-0.839-1.468-1.848-1.944-3.019c-0.48-1.176-0.717-2.426-0.717-3.745
	c0-1.743,0.402-3.33,1.206-4.763c0.809-1.434,1.923-2.565,3.343-3.387C576.863,348.993,578.439,348.582,580.175,348.582z
	 M568.37,362.612c-0.507,1.442-1.481,2.608-2.932,3.5c-1.45,0.896-3.103,1.342-4.955,1.342c-1.307,0-2.53-0.245-3.666-0.729
	c-1.141-0.49-2.114-1.154-2.928-1.993c-0.808-0.839-1.446-1.848-1.913-3.019c-0.463-1.176-0.695-2.426-0.695-3.745
	c0-1.054,0.145-2.054,0.441-3.011c0.293-0.957,0.717-1.817,1.271-2.587c0.555-0.765,1.206-1.438,1.953-2.01
	c0.747-0.568,1.595-1.009,2.548-1.315c0.952-0.31,1.948-0.463,2.988-0.463c1.766,0,3.355,0.411,4.767,1.228
	c1.416,0.821,2.386,1.888,2.915,3.203l-2.255,1.101c-0.433-0.939-1.141-1.69-2.119-2.254c-0.975-0.563-2.08-0.844-3.308-0.844
	c-1.28,0-2.425,0.302-3.431,0.909c-1.009,0.607-1.786,1.438-2.342,2.495c-0.555,1.058-0.834,2.241-0.834,3.548
	c0,2.031,0.616,3.714,1.853,5.047c1.232,1.337,2.818,2.005,4.754,2.005c1.298,0,2.456-0.314,3.474-0.938
	c1.022-0.63,1.73-1.469,2.133-2.518L568.37,362.612z M540.486,367.454c-0.512,0-0.936-0.167-1.271-0.503
	c-0.342-0.332-0.507-0.752-0.507-1.254c0-0.485,0.165-0.9,0.507-1.241c0.336-0.341,0.76-0.512,1.271-0.512
	c0.493,0,0.917,0.171,1.263,0.512c0.345,0.341,0.516,0.756,0.516,1.241c0,0.494-0.171,0.913-0.512,1.25
	C541.412,367.283,540.988,367.454,540.486,367.454z M536.184,348.84v2.421h-5.811v15.935h-2.548v-15.935h-5.824v-2.421H536.184z
	 M519.953,362.612c-0.507,1.442-1.481,2.608-2.933,3.5c-1.45,0.896-3.102,1.342-4.954,1.342c-1.307,0-2.53-0.245-3.666-0.729
	c-1.14-0.49-2.114-1.154-2.928-1.993c-0.809-0.839-1.446-1.848-1.913-3.019c-0.464-1.176-0.695-2.426-0.695-3.745
	c0-1.054,0.145-2.054,0.441-3.011c0.293-0.957,0.717-1.817,1.271-2.587c0.555-0.765,1.206-1.438,1.953-2.01
	c0.747-0.568,1.595-1.009,2.548-1.315c0.952-0.31,1.948-0.463,2.988-0.463c1.766,0,3.355,0.411,4.767,1.228
	c1.416,0.821,2.387,1.888,2.915,3.203l-2.255,1.101c-0.433-0.939-1.141-1.69-2.119-2.254c-0.975-0.563-2.08-0.844-3.308-0.844
	c-1.28,0-2.425,0.302-3.43,0.909c-1.01,0.607-1.787,1.438-2.342,2.495c-0.556,1.058-0.835,2.241-0.835,3.548
	c0,2.031,0.616,3.714,1.853,5.047c1.232,1.337,2.818,2.005,4.754,2.005c1.298,0,2.455-0.314,3.474-0.938
	c1.022-0.63,1.73-1.469,2.132-2.518L519.953,362.612z M489.457,348.84h10.547v2.421h-8v5.028h7.131v2.408h-7.131v6.091h8v2.407
	h-10.547V348.84z M474.799,348.84h2.547v15.948h9.023v2.407h-11.57V348.84z M460.142,348.84h2.547v15.948h9.022v2.407h-11.569
	V348.84z M450.87,351.93c-1.022-0.607-2.153-0.914-3.39-0.914c-1.241,0-2.369,0.307-3.396,0.914
	c-1.022,0.611-1.826,1.45-2.412,2.517c-0.585,1.065-0.878,2.241-0.878,3.521c0,1.988,0.642,3.661,1.927,5.017
	c1.284,1.358,2.87,2.035,4.759,2.035c1.883,0,3.469-0.677,4.753-2.035c1.285-1.355,1.928-3.028,1.928-5.017
	c0-1.28-0.293-2.456-0.879-3.521C452.697,353.38,451.894,352.541,450.87,351.93z M447.48,348.582c1.283,0,2.503,0.24,3.652,0.726
	c1.149,0.48,2.132,1.136,2.958,1.971c0.821,0.83,1.473,1.826,1.953,2.988c0.476,1.162,0.717,2.395,0.717,3.701
	c0,1.319-0.241,2.569-0.717,3.745c-0.48,1.171-1.132,2.18-1.953,3.019c-0.826,0.839-1.809,1.503-2.958,1.993
	c-1.149,0.484-2.369,0.729-3.652,0.729c-1.298,0-2.521-0.245-3.671-0.729c-1.145-0.49-2.133-1.154-2.949-1.993
	c-0.822-0.839-1.468-1.848-1.944-3.019c-0.48-1.176-0.717-2.426-0.717-3.745c0-1.743,0.401-3.33,1.206-4.763
	c0.809-1.434,1.923-2.565,3.343-3.387C444.168,348.993,445.745,348.582,447.48,348.582z M435.676,362.612
	c-0.508,1.442-1.481,2.608-2.933,3.5c-1.45,0.896-3.102,1.342-4.955,1.342c-1.306,0-2.529-0.245-3.665-0.729
	c-1.141-0.49-2.115-1.154-2.928-1.993c-0.809-0.839-1.446-1.848-1.914-3.019c-0.463-1.176-0.695-2.426-0.695-3.745
	c0-1.054,0.144-2.054,0.441-3.011c0.293-0.957,0.716-1.817,1.272-2.587c0.555-0.765,1.206-1.438,1.952-2.01
	c0.747-0.568,1.596-1.009,2.548-1.315c0.952-0.31,1.949-0.463,2.988-0.463c1.766,0,3.356,0.411,4.768,1.228
	c1.416,0.821,2.386,1.888,2.914,3.203l-2.254,1.101c-0.434-0.939-1.141-1.69-2.12-2.254c-0.974-0.563-2.079-0.844-3.308-0.844
	c-1.279,0-2.424,0.302-3.43,0.909c-1.009,0.607-1.787,1.438-2.342,2.495s-0.835,2.241-0.835,3.548c0,2.031,0.617,3.714,1.853,5.047
	c1.232,1.337,2.819,2.005,4.754,2.005c1.298,0,2.456-0.314,3.475-0.938c1.022-0.63,1.73-1.469,2.132-2.518L435.676,362.612z
	 M407.792,367.454c-0.512,0-0.935-0.167-1.272-0.503c-0.341-0.332-0.507-0.752-0.507-1.254c0-0.485,0.166-0.9,0.507-1.241
	c0.337-0.341,0.76-0.512,1.272-0.512c0.494,0,0.917,0.171,1.262,0.512c0.345,0.341,0.516,0.756,0.516,1.241
	c0,0.494-0.17,0.913-0.511,1.25C408.718,367.283,408.294,367.454,407.792,367.454z M392.43,351.261l0.026,5.898h4.173
	c0.878,0,1.603-0.284,2.175-0.853c0.573-0.567,0.857-1.279,0.857-2.141c0-0.839-0.284-1.534-0.857-2.084
	c-0.572-0.546-1.297-0.821-2.175-0.821H392.43z M403.489,367.195h-3.032l-4.876-7.628h-3.124v7.628h-2.548V348.84h6.773
	c1.542,0,2.849,0.512,3.923,1.534c1.07,1.026,1.604,2.289,1.604,3.792c0,1.32-0.35,2.447-1.048,3.374
	c-0.699,0.921-1.643,1.542-2.827,1.848L403.489,367.195z M375.824,348.84h10.547v2.421h-8v5.028h7.13v2.408h-7.13v6.091h8v2.407
	h-10.547V348.84z M357.246,348.84h2.7l5.313,14.401l5.326-14.401h2.648l-6.925,18.355h-2.124L357.246,348.84z M349.436,351.93
	c-1.022-0.607-2.155-0.914-3.391-0.914c-1.241,0-2.368,0.307-3.395,0.914c-1.023,0.611-1.827,1.45-2.412,2.517
	c-0.585,1.065-0.878,2.241-0.878,3.521c0,1.988,0.643,3.661,1.927,5.017c1.285,1.358,2.871,2.035,4.758,2.035
	c1.883,0,3.469-0.677,4.754-2.035c1.285-1.355,1.927-3.028,1.927-5.017c0-1.28-0.292-2.456-0.878-3.521
	C351.261,353.38,350.458,352.541,349.436,351.93z M346.044,348.582c1.285,0,2.504,0.24,3.653,0.726
	c1.149,0.48,2.132,1.136,2.958,1.971c0.821,0.83,1.472,1.826,1.953,2.988c0.476,1.162,0.716,2.395,0.716,3.701
	c0,1.319-0.24,2.569-0.716,3.745c-0.481,1.171-1.132,2.18-1.953,3.019c-0.826,0.839-1.809,1.503-2.958,1.993
	c-1.149,0.484-2.368,0.729-3.653,0.729c-1.298,0-2.521-0.245-3.67-0.729c-1.145-0.49-2.132-1.154-2.949-1.993
	c-0.822-0.839-1.468-1.848-1.944-3.019c-0.481-1.176-0.717-2.426-0.717-3.745c0-1.743,0.402-3.33,1.207-4.763
	c0.808-1.434,1.922-2.565,3.342-3.387C342.732,348.993,344.31,348.582,346.044,348.582z M334.24,362.612
	c-0.507,1.442-1.481,2.608-2.932,3.5c-1.451,0.896-3.102,1.342-4.955,1.342c-1.307,0-2.53-0.245-3.666-0.729
	c-1.14-0.49-2.115-1.154-2.928-1.993c-0.808-0.839-1.446-1.848-1.914-3.019c-0.463-1.176-0.695-2.426-0.695-3.745
	c0-1.054,0.144-2.054,0.441-3.011c0.292-0.957,0.716-1.817,1.271-2.587c0.555-0.765,1.206-1.438,1.954-2.01
	c0.747-0.568,1.595-1.009,2.547-1.315c0.953-0.31,1.949-0.463,2.989-0.463c1.765,0,3.355,0.411,4.767,1.228
	c1.416,0.821,2.386,1.888,2.915,3.203l-2.255,1.101c-0.433-0.939-1.141-1.69-2.119-2.254c-0.975-0.563-2.08-0.844-3.308-0.844
	c-1.281,0-2.425,0.302-3.43,0.909c-1.01,0.607-1.787,1.438-2.342,2.495c-0.555,1.058-0.835,2.241-0.835,3.548
	c0,2.031,0.616,3.714,1.853,5.047c1.231,1.337,2.818,2.005,4.754,2.005c1.297,0,2.455-0.314,3.474-0.938
	c1.022-0.63,1.73-1.469,2.132-2.518L334.24,362.612z M308.086,348.582c1.149,0,2.294,0.231,3.421,0.699
	c1.131,0.463,1.992,1.062,2.582,1.787l-1.499,1.971c-0.572-0.625-1.28-1.118-2.12-1.481c-0.839-0.362-1.699-0.542-2.578-0.542
	c-0.974,0-1.774,0.231-2.395,0.69c-0.625,0.463-0.935,1.054-0.935,1.778c0,0.473,0.114,0.883,0.345,1.236
	c0.232,0.354,0.542,0.643,0.931,0.87c0.385,0.228,0.831,0.429,1.329,0.603c0.498,0.175,1.031,0.341,1.586,0.498
	c0.56,0.157,1.118,0.328,1.673,0.508c0.555,0.179,1.08,0.401,1.582,0.664c0.499,0.267,0.94,0.576,1.329,0.931
	c0.389,0.354,0.699,0.804,0.931,1.354c0.227,0.551,0.345,1.18,0.345,1.889c0,0.726-0.153,1.419-0.454,2.075
	c-0.306,0.655-0.725,1.231-1.267,1.726c-0.542,0.498-1.219,0.892-2.032,1.18c-0.808,0.288-1.691,0.438-2.647,0.438
	c-1.351,0-2.648-0.271-3.907-0.809c-1.254-0.538-2.294-1.237-3.12-2.098l1.599-1.883c1.673,1.568,3.482,2.354,5.427,2.354
	c1.119,0,2.032-0.274,2.739-0.825c0.708-0.551,1.062-1.264,1.062-2.133c0-0.45-0.113-0.848-0.34-1.188
	c-0.223-0.341-0.533-0.616-0.917-0.826c-0.389-0.209-0.835-0.397-1.333-0.563c-0.498-0.166-1.026-0.324-1.577-0.477
	c-0.551-0.148-1.097-0.311-1.647-0.485s-1.08-0.393-1.578-0.659c-0.498-0.263-0.943-0.573-1.333-0.923
	c-0.384-0.349-0.695-0.804-0.917-1.363c-0.227-0.559-0.341-1.197-0.341-1.913c0-1.46,0.572-2.67,1.717-3.636
	C304.888,349.066,306.334,348.582,308.086,348.582z M295.806,348.84h2.548v18.355h-2.548V348.84z M283.49,364.788
	c1.826,0,3.338-0.65,4.543-1.953c1.202-1.298,1.805-2.932,1.805-4.894c0-1.94-0.599-3.535-1.8-4.793
	c-1.197-1.259-2.714-1.888-4.548-1.888h-3.483v13.527H283.49z M283.337,348.84c1.262,0,2.455,0.231,3.574,0.69
	c1.123,0.459,2.089,1.092,2.901,1.888c0.813,0.799,1.451,1.761,1.918,2.893c0.472,1.132,0.708,2.342,0.708,3.631
	c0,1.307-0.236,2.53-0.708,3.679c-0.467,1.149-1.105,2.128-1.914,2.945c-0.804,0.813-1.77,1.455-2.897,1.927
	c-1.127,0.468-2.32,0.703-3.583,0.703h-5.877V348.84H283.337z"/>
<rect x="248.173" y="339.607" fill-rule="evenodd" clip-rule="evenodd" fill="#FFA600" width="12.896" height="12.896"/>
<rect x="248.173" y="306.536" fill-rule="evenodd" clip-rule="evenodd" fill="#FF4A61" width="12.896" height="12.896"/>
<rect x="248.174" y="256.929" fill-rule="evenodd" clip-rule="evenodd" fill="#7800DE" width="12.896" height="12.896"/>
<rect x="231.638" y="306.536" fill-rule="evenodd" clip-rule="evenodd" fill="#FF4A61" width="12.895" height="12.896"/>
<rect x="231.638" y="290" fill-rule="evenodd" clip-rule="evenodd" fill="#E80094" width="12.896" height="12.896"/>
<rect x="165.495" y="306.536" fill-rule="evenodd" clip-rule="evenodd" fill="#FF4A61" width="12.896" height="12.896"/>
<rect x="165.495" y="290" fill-rule="evenodd" clip-rule="evenodd" fill="#E80094" width="12.896" height="12.896"/>
<rect x="182.031" y="356.144" fill-rule="evenodd" clip-rule="evenodd" fill="#EDCF00" width="12.896" height="12.896"/>
<rect x="182.031" y="339.607" fill-rule="evenodd" clip-rule="evenodd" fill="#FFA600" width="12.896" height="12.896"/>
<rect x="182.031" y="306.536" fill-rule="evenodd" clip-rule="evenodd" fill="#FF4A61" width="12.896" height="12.896"/>
<rect x="182.031" y="290" fill-rule="evenodd" clip-rule="evenodd" fill="#E80094" width="12.896" height="12.896"/>
<rect x="182.031" y="273.465" fill-rule="evenodd" clip-rule="evenodd" fill="#B500C2" width="12.896" height="12.896"/>
<rect x="182.031" y="256.929" fill-rule="evenodd" clip-rule="evenodd" fill="#7800DE" width="12.896" height="12.896"/>
<rect x="198.566" y="356.144" fill-rule="evenodd" clip-rule="evenodd" fill="#EDCF00" width="12.896" height="12.896"/>
<rect x="198.566" y="290" fill-rule="evenodd" clip-rule="evenodd" fill="#E80094" width="12.896" height="12.896"/>
<rect x="198.566" y="273.464" fill-rule="evenodd" clip-rule="evenodd" fill="#B500C2" width="12.896" height="12.896"/>
<rect x="198.566" y="256.929" fill-rule="evenodd" clip-rule="evenodd" fill="#7800DE" width="12.896" height="12.896"/>
<rect x="198.566" y="240.394" fill-rule="evenodd" clip-rule="evenodd" fill="#2E00E3" width="12.896" height="12.896"/>
<rect x="215.103" y="306.536" fill-rule="evenodd" clip-rule="evenodd" fill="#FF4A61" width="12.896" height="12.896"/>
<rect x="215.103" y="290" fill-rule="evenodd" clip-rule="evenodd" fill="#E80094" width="12.896" height="12.896"/>
<rect x="215.103" y="273.465" fill-rule="evenodd" clip-rule="evenodd" fill="#B500C2" width="12.896" height="12.896"/>
<rect x="228.334" y="226.236" fill-rule="evenodd" clip-rule="evenodd" fill="#2E00E3" width="12.896" height="12.896"/>
<rect x="231.638" y="339.607" fill-rule="evenodd" clip-rule="evenodd" fill="#FFA600" width="12.896" height="12.896"/>
<rect x="231.638" y="356.144" fill-rule="evenodd" clip-rule="evenodd" fill="#EDCF00" width="12.896" height="12.896"/>
<rect x="165.495" y="339.607" fill-rule="evenodd" clip-rule="evenodd" fill="#FFA600" width="12.896" height="12.896"/>
<rect x="248.174" y="323.071" fill-rule="evenodd" clip-rule="evenodd" fill="#FF8040" width="12.896" height="12.896"/>
<rect x="165.495" y="323.071" fill-rule="evenodd" clip-rule="evenodd" fill="#FF8040" width="12.896" height="12.896"/>
<rect x="182.031" y="323.071" fill-rule="evenodd" clip-rule="evenodd" fill="#FF8040" width="12.896" height="12.896"/>
<rect x="215.103" y="323.071" fill-rule="evenodd" clip-rule="evenodd" fill="#FF8040" width="12.896" height="12.896"/>
<rect x="231.638" y="323.071" fill-rule="evenodd" clip-rule="evenodd" fill="#FF8040" width="12.896" height="12.896"/>
</svg>
