<?xml version="1.0" encoding="utf-8"?>
<!-- Generator: Adobe Illustrator 16.0.2, SVG Export Plug-In . SVG Version: 6.00 Build 0)  -->
<!DOCTYPE svg PUBLIC "-//W3C//DTD SVG 1.1//EN" "http://www.w3.org/Graphics/SVG/1.1/DTD/svg11.dtd">
<svg version="1.1" id="Layer_1" xmlns="http://www.w3.org/2000/svg" xmlns:xlink="http://www.w3.org/1999/xlink" x="0px" y="0px"
	 width="841.89px" height="595.275px" viewBox="0 0 841.89 595.275" enable-background="new 0 0 841.89 595.275"
	 xml:space="preserve">
<rect x="530.113" y="428.955" fill-rule="evenodd" clip-rule="evenodd" fill="#FFA600" width="40.349" height="40.349"/>
<rect x="530.113" y="325.479" fill-rule="evenodd" clip-rule="evenodd" fill="#FF4A61" width="40.349" height="40.349"/>
<rect x="530.113" y="170.267" fill-rule="evenodd" clip-rule="evenodd" fill="#7800DE" width="40.35" height="40.349"/>
<rect x="478.377" y="325.479" fill-rule="evenodd" clip-rule="evenodd" fill="#FF4A61" width="40.348" height="40.349"/>
<rect x="478.376" y="273.742" fill-rule="evenodd" clip-rule="evenodd" fill="#E80094" width="40.349" height="40.349"/>
<rect x="271.426" y="325.479" fill-rule="evenodd" clip-rule="evenodd" fill="#FF4A61" width="40.349" height="40.349"/>
<rect x="271.426" y="273.742" fill-rule="evenodd" clip-rule="evenodd" fill="#E80094" width="40.349" height="40.349"/>
<rect x="323.164" y="480.692" fill-rule="evenodd" clip-rule="evenodd" fill="#EDCF00" width="40.349" height="40.349"/>
<rect x="323.164" y="428.955" fill-rule="evenodd" clip-rule="evenodd" fill="#FFA600" width="40.349" height="40.349"/>
<rect x="323.164" y="325.479" fill-rule="evenodd" clip-rule="evenodd" fill="#FF4A61" width="40.349" height="40.349"/>
<rect x="323.164" y="273.742" fill-rule="evenodd" clip-rule="evenodd" fill="#E80094" width="40.349" height="40.349"/>
<rect x="323.164" y="222.004" fill-rule="evenodd" clip-rule="evenodd" fill="#B500C2" width="40.349" height="40.349"/>
<rect x="323.164" y="170.267" fill-rule="evenodd" clip-rule="evenodd" fill="#7800DE" width="40.349" height="40.349"/>
<rect x="374.901" y="480.691" fill-rule="evenodd" clip-rule="evenodd" fill="#EDCF00" width="40.349" height="40.35"/>
<rect x="374.901" y="273.742" fill-rule="evenodd" clip-rule="evenodd" fill="#E80094" width="40.349" height="40.349"/>
<rect x="374.901" y="222.004" fill-rule="evenodd" clip-rule="evenodd" fill="#B500C2" width="40.349" height="40.349"/>
<rect x="374.901" y="170.267" fill-rule="evenodd" clip-rule="evenodd" fill="#7800DE" width="40.349" height="40.348"/>
<rect x="374.901" y="118.529" fill-rule="evenodd" clip-rule="evenodd" fill="#2E00E3" width="40.349" height="40.349"/>
<rect x="426.639" y="325.479" fill-rule="evenodd" clip-rule="evenodd" fill="#FF4A61" width="40.349" height="40.349"/>
<rect x="426.639" y="273.742" fill-rule="evenodd" clip-rule="evenodd" fill="#E80094" width="40.349" height="40.349"/>
<rect x="426.639" y="222.004" fill-rule="evenodd" clip-rule="evenodd" fill="#B500C2" width="40.349" height="40.349"/>
<rect x="468.041" y="74.233" fill-rule="evenodd" clip-rule="evenodd" fill="#2E00E3" width="40.348" height="40.349"/>
<rect x="478.377" y="428.955" fill-rule="evenodd" clip-rule="evenodd" fill="#FFA600" width="40.349" height="40.349"/>
<rect x="478.377" y="480.692" fill-rule="evenodd" clip-rule="evenodd" fill="#EDCF00" width="40.349" height="40.349"/>
<rect x="271.426" y="428.955" fill-rule="evenodd" clip-rule="evenodd" fill="#FFA600" width="40.349" height="40.349"/>
<rect x="530.113" y="377.218" fill-rule="evenodd" clip-rule="evenodd" fill="#FF8040" width="40.35" height="40.349"/>
<rect x="271.426" y="377.218" fill-rule="evenodd" clip-rule="evenodd" fill="#FF8040" width="40.349" height="40.349"/>
<rect x="323.164" y="377.218" fill-rule="evenodd" clip-rule="evenodd" fill="#FF8040" width="40.349" height="40.349"/>
<rect x="426.639" y="377.218" fill-rule="evenodd" clip-rule="evenodd" fill="#FF8040" width="40.349" height="40.349"/>
<rect x="478.377" y="377.218" fill-rule="evenodd" clip-rule="evenodd" fill="#FF8040" width="40.349" height="40.349"/>
</svg>
