<?xml version="1.0" encoding="UTF-8"?>
<svg id="Your_design" data-name="Your design" xmlns="http://www.w3.org/2000/svg" viewBox="0 0 679.22 185.34">
  <defs>
    <style>
      .cls-1 {
        fill: #010101;
      }

      .cls-2 {
        fill: #7857a4;
      }

      .cls-3 {
        fill: #575daa;
      }

      .cls-4 {
        fill: #f47521;
      }

      .cls-5 {
        fill: #ef384f;
      }

      .cls-6 {
        fill: #edd017;
      }

      .cls-7 {
        fill: #f8a821;
      }

      .cls-8 {
        fill: #b44a9b;
      }

      .cls-9 {
        fill: #e43293;
      }
    </style>
  </defs>
  <g>
    <path class="cls-1" d="M202.89,152.74c-6.11,0-11.46-1.49-16.04-4.47-4.58-2.98-8.11-7.21-10.6-12.72-2.48-5.5-3.72-11.9-3.72-19.21s1.25-13.72,3.74-19.2c2.49-5.48,6.03-9.72,10.61-12.7,4.58-2.99,9.92-4.48,16-4.48s10.97,1.52,15.13,4.57c4.15,3.04,7.3,7.28,9.43,12.7,2.13,5.43,3.21,11.71,3.23,18.85v.27c0,7.19-1.05,13.52-3.15,18.99-2.1,5.47-5.23,9.74-9.4,12.8-4.17,3.07-9.25,4.6-15.25,4.6ZM207.3,138.89c3.62,0,6.74-.88,9.38-2.63,2.64-1.75,4.67-4.32,6.08-7.7,1.42-3.38,2.12-7.44,2.12-12.18s-.71-8.8-2.12-12.18c-1.42-3.38-3.44-5.95-6.08-7.71-2.64-1.76-5.77-2.64-9.38-2.64s-6.68.91-9.32,2.73c-2.64,1.82-4.67,4.45-6.1,7.9-1.43,3.45-2.14,7.55-2.14,12.32s.7,8.76,2.11,12.06c1.4,3.3,3.43,5.8,6.06,7.5s5.77,2.54,9.38,2.54ZM224.89,151.12v-16.61h1.21v-36.32h-1.82v-43.02h16.81v95.96h-16.21Z"/>
    <rect class="cls-7" x="255.04" y="58.47" width="16.85" height="15.9"/>
    <rect class="cls-1" x="255.04" y="81.58" width="16.85" height="69.54"/>
    <path class="cls-1" d="M312.96,151.96c-6.09,0-11.41-1.48-15.97-4.43-4.56-2.95-8.08-7.15-10.56-12.6-2.48-5.45-3.72-11.79-3.72-19.02s1.24-13.53,3.72-18.95c2.48-5.42,6.01-9.61,10.58-12.57,4.57-2.95,9.89-4.43,15.95-4.43s11.03,1.51,15.25,4.51c4.21,3.01,7.4,7.2,9.57,12.57,2.17,5.37,3.27,11.57,3.32,18.6v.3c0,7.1-1.07,13.35-3.22,18.77-2.15,5.41-5.33,9.64-9.55,12.68-4.22,3.04-9.34,4.57-15.36,4.57ZM317.95,180.81c-6.4,0-11.94-.99-16.61-2.98-4.67-1.99-8.32-4.84-10.93-8.56-2.62-3.72-4.15-8.16-4.6-13.33h16.85c.27,2.65,1.03,4.87,2.27,6.65,1.25,1.79,2.95,3.12,5.12,3.99,2.17.88,4.77,1.31,7.8,1.31,3.71,0,6.81-.65,9.3-1.94,2.49-1.29,4.37-3.23,5.63-5.83,1.26-2.6,1.89-5.85,1.89-9.75v-17.89h1.85v-35.34h-1.28v-15.57h16.41v68.16c0,6.31-1.27,11.8-3.81,16.48-2.54,4.67-6.33,8.27-11.37,10.8-5.04,2.53-11.21,3.79-18.51,3.79ZM317.47,138.62c3.62,0,6.74-.89,9.38-2.66,2.64-1.77,4.67-4.37,6.08-7.78,1.42-3.41,2.12-7.5,2.12-12.26s-.71-8.82-2.12-12.23c-1.42-3.41-3.44-6.01-6.08-7.78-2.64-1.77-5.77-2.66-9.38-2.66s-6.68.92-9.32,2.75c-2.64,1.83-4.67,4.48-6.1,7.93-1.43,3.46-2.14,7.58-2.14,12.36s.7,8.82,2.11,12.18c1.4,3.36,3.43,5.89,6.06,7.6,2.64,1.71,5.77,2.56,9.38,2.56Z"/>
    <rect class="cls-5" x="365.59" y="58.47" width="16.85" height="15.9"/>
    <rect class="cls-1" x="365.59" y="81.58" width="16.85" height="69.54"/>
    <path class="cls-1" d="M396.38,178.62v-97.03h16.21v16.44h-1.18v36.32h1.82v44.27h-16.85ZM434.58,152.74c-5.97,0-11.04-1.53-15.19-4.6-4.16-3.07-7.28-7.33-9.37-12.79-2.09-5.46-3.13-11.79-3.13-19v-.27c0-7.14,1.05-13.43,3.15-18.87,2.1-5.44,5.23-9.67,9.38-12.7,4.16-3.03,9.21-4.55,15.16-4.55s11.52,1.49,16.09,4.47c4.57,2.98,8.1,7.2,10.58,12.68,2.48,5.48,3.72,11.89,3.72,19.24s-1.24,13.75-3.72,19.22-6.01,9.7-10.6,12.69c-4.58,2.99-9.94,4.48-16.07,4.48ZM430.17,138.86c3.57,0,6.68-.91,9.33-2.73,2.65-1.82,4.69-4.45,6.12-7.9,1.43-3.45,2.14-7.55,2.14-12.31s-.71-8.74-2.12-12.06-3.44-5.83-6.08-7.53c-2.64-1.69-5.77-2.54-9.38-2.54s-6.74.88-9.38,2.64c-2.64,1.76-4.67,4.33-6.08,7.71-1.42,3.38-2.12,7.43-2.12,12.15s.71,8.8,2.12,12.2c1.42,3.39,3.44,5.97,6.08,7.73,2.64,1.76,5.77,2.64,9.38,2.64Z"/>
    <path class="cls-1" d="M475.75,151.12V55.17h16.85v95.96h-16.85ZM521.31,107.76c0-2.96-.5-5.43-1.52-7.39-1.01-1.97-2.49-3.43-4.43-4.4-1.94-.96-4.33-1.45-7.16-1.45-2.63,0-5.14.64-7.53,1.9s-4.33,3.22-5.83,5.86c-1.49,2.64-2.24,5.93-2.24,9.86l-6.84-.03v-15.36h3.98c1.3-3.35,3.11-6.27,5.41-8.76,2.3-2.49,5.05-4.45,8.24-5.88,3.19-1.43,6.69-2.14,10.51-2.14,5.03,0,9.35.96,12.97,2.86,3.62,1.91,6.4,4.76,8.34,8.56,1.94,3.8,2.91,8.46,2.91,13.98v45.75h-16.81v-43.36Z"/>
    <rect class="cls-3" x="552.07" y="58.47" width="16.85" height="15.9"/>
    <rect class="cls-1" x="552.07" y="81.58" width="16.85" height="69.54"/>
    <path class="cls-1" d="M582.86,151.12V55.17h16.85v95.96h-16.85Z"/>
    <path class="cls-1" d="M645.25,152.74c-6.9,0-12.97-1.47-18.23-4.4-5.26-2.93-9.32-7.14-12.2-12.62-2.88-5.48-4.31-11.91-4.31-19.31s1.42-13.6,4.25-19.1c2.83-5.5,6.86-9.77,12.08-12.8,5.22-3.03,11.28-4.55,18.18-4.55s13.09,1.55,18.24,4.65c5.16,3.1,9.1,7.4,11.84,12.89,2.74,5.49,4.11,11.76,4.11,18.82,0,.74-.02,1.53-.05,2.36-.03.83-.07,1.72-.12,2.66h-59.6v-11.46h48.08l-5.09,2.83c-.02-3.86-.71-7.28-2.06-10.26-1.35-2.98-3.34-5.3-5.98-6.97-2.64-1.67-5.82-2.51-9.55-2.51s-6.79.81-9.45,2.42c-2.66,1.62-4.73,4.06-6.2,7.33-1.47,3.27-2.23,7.35-2.27,12.25v3.54c0,4.74.74,8.71,2.22,11.91,1.48,3.2,3.61,5.59,6.39,7.18,2.77,1.58,6.09,2.38,9.96,2.38,2.76,0,5.22-.43,7.36-1.28s3.93-2.05,5.36-3.59c1.43-1.54,2.49-3.39,3.18-5.54h16.21c-1.17,4.67-3.21,8.75-6.13,12.23-2.92,3.48-6.61,6.18-11.07,8.09-4.46,1.91-9.51,2.86-15.14,2.86Z"/>
  </g>
  <g>
    <rect class="cls-5" x="112.93" y="103.9" width="14.09" height="14.09" transform="translate(239.94 221.88) rotate(180)"/>
    <rect class="cls-5" x="90.34" y="103.9" width="14.09" height="14.09" transform="translate(194.77 221.88) rotate(180)"/>
    <rect class="cls-5" x="67.76" y="103.9" width="14.09" height="14.09" transform="translate(149.6 221.88) rotate(180)"/>
    <rect class="cls-5" x="22.59" y="103.9" width="14.09" height="14.09" transform="translate(59.26 221.88) rotate(180)"/>
    <rect class="cls-5" y="103.9" width="14.09" height="14.09" transform="translate(14.09 221.88) rotate(180)"/>
    <rect class="cls-9" x="90.34" y="81.45" width="14.09" height="14.09" transform="translate(194.77 176.98) rotate(180)"/>
    <rect class="cls-9" x="67.76" y="81.45" width="14.09" height="14.09" transform="translate(149.6 176.98) rotate(180)"/>
    <rect class="cls-9" x="22.59" y="81.45" width="14.09" height="14.09" transform="translate(59.26 176.98) rotate(180)"/>
    <rect class="cls-9" y="81.45" width="14.09" height="14.09" transform="translate(14.09 176.98) rotate(180)"/>
    <rect class="cls-8" x="67.76" y="58.99" width="14.09" height="14.09" transform="translate(149.6 132.07) rotate(180)"/>
    <rect class="cls-8" x="45.17" y="58.99" width="14.09" height="14.09" transform="translate(104.43 132.07) rotate(180)"/>
    <rect class="cls-8" x="22.59" y="58.99" width="14.09" height="14.09" transform="translate(59.26 132.07) rotate(180)"/>
    <rect class="cls-2" x="112.93" y="36.54" width="14.09" height="14.09" transform="translate(239.94 87.17) rotate(180)"/>
    <rect class="cls-3" x="83.3" width="14.09" height="14.09" transform="translate(180.68 14.09) rotate(180)"/>
    <rect class="cls-2" x="45.17" y="36.54" width="14.09" height="14.09" transform="translate(104.43 87.17) rotate(180)"/>
    <rect class="cls-2" x="22.59" y="36.54" width="14.09" height="14.09" transform="translate(59.26 87.17) rotate(180)"/>
    <rect class="cls-3" x="45.17" y="14.09" width="14.09" height="14.09" transform="translate(104.43 42.26) rotate(180)"/>
    <rect class="cls-4" x="112.93" y="126.35" width="14.09" height="14.09" transform="translate(239.94 266.79) rotate(180)"/>
    <rect class="cls-4" x="90.34" y="126.35" width="14.09" height="14.09" transform="translate(194.77 266.79) rotate(180)"/>
    <rect class="cls-4" y="126.35" width="14.09" height="14.09" transform="translate(14.09 266.79) rotate(180)"/>
    <rect class="cls-7" x="112.93" y="148.8" width="14.09" height="14.09" transform="translate(239.94 311.7) rotate(180)"/>
    <rect class="cls-7" y="148.8" width="14.09" height="14.09" transform="translate(14.09 311.7) rotate(180)"/>
    <rect class="cls-6" x="90.34" y="171.26" width="14.09" height="14.09" transform="translate(194.77 356.6) rotate(180)"/>
    <rect class="cls-6" x="22.59" y="171.26" width="14.09" height="14.09" transform="translate(59.26 356.6) rotate(180)"/>
  </g>
</svg>