<?xml version="1.0" encoding="utf-8"?>
<!-- Generator: Adobe Illustrator 16.0.2, SVG Export Plug-In . SVG Version: 6.00 Build 0)  -->
<!DOCTYPE svg PUBLIC "-//W3C//DTD SVG 1.1//EN" "http://www.w3.org/Graphics/SVG/1.1/DTD/svg11.dtd">
<svg version="1.1" id="Layer_1" xmlns="http://www.w3.org/2000/svg" xmlns:xlink="http://www.w3.org/1999/xlink" x="0px" y="0px"
	 width="841.89px" height="595.275px" viewBox="0 0 841.89 595.275" enable-background="new 0 0 841.89 595.275"
	 xml:space="preserve">
<path d="M634.947,303.08h29.835c-0.482-3.931-1.966-6.95-4.466-9.076c-2.501-2.108-5.807-3.162-9.916-3.162
	c-4.108,0-7.503,1.054-10.183,3.162C637.537,296.13,635.787,299.149,634.947,303.08 M650.848,336.756
	c-5.663,0-10.577-1.144-14.774-3.448c-4.199-2.286-7.433-5.538-9.701-9.736s-3.395-9.146-3.395-14.864
	c0-5.663,1.126-10.558,3.358-14.703c2.233-4.126,5.396-7.324,9.505-9.593c4.108-2.269,8.968-3.395,14.56-3.395
	c7.986,0,14.311,2.34,18.991,7.003c4.663,4.681,7.003,11.041,7.003,19.08v4.466H634.59c0.411,4.878,2.037,8.647,4.877,11.291
	c2.823,2.662,6.593,3.984,11.291,3.984c6.967,0,11.309-2.626,13.042-7.861h12.327c-1.305,5.592-4.181,9.952-8.611,13.078
	C663.067,335.184,657.511,336.756,650.848,336.756z M602.136,335.684V260.65h12.148v75.034H602.136z M577.9,335.684v-53.596h12.148
	v53.596H577.9z M514.361,335.684V260.65h12.148v29.657h0.357c3.447-6.128,9.379-9.201,17.774-9.201
	c6.736,0,12.078,2.001,16.044,6.021c3.948,4.019,5.932,9.397,5.932,16.132v32.425h-12.149v-30.281
	c0-9.058-4.645-13.578-13.935-13.578c-9.343,0-14.023,4.52-14.023,13.578v30.281H514.361z M478.513,326.305
	c5.003,0,8.825-1.555,11.487-4.646c2.645-3.09,3.966-7.36,3.966-12.772c0-5.413-1.321-9.685-3.966-12.774
	c-2.662-3.091-6.484-4.645-11.487-4.645c-4.466,0-8.039,1.287-10.719,3.841c-2.68,2.555-4.02,6.021-4.02,10.362v6.432
	c0,4.342,1.34,7.808,4.02,10.361C470.474,325.019,474.047,326.305,478.513,326.305z M451.626,357.122v-62.796h-6.164v-12.238h12.685
	v8.487h3.752c1.84-3.091,4.341-5.467,7.467-7.111c3.127-1.625,6.879-2.447,11.291-2.447c8.165,0,14.436,2.537,18.848,7.593
	c4.413,5.055,6.61,11.826,6.61,20.277c0,8.521-2.161,15.292-6.467,20.313c-4.323,5.037-10.326,7.557-18.009,7.557
	c-8.396,0-14.238-3.037-17.508-9.111h-0.356v29.478H451.626z M424.8,335.684v-53.596h12.147v53.596H424.8z M383.413,325.144
	c4.466,0,8.003-1.269,10.629-3.806c2.627-2.52,3.931-5.931,3.931-10.219v-5.627c0-4.234-1.322-7.611-3.965-10.148
	c-2.663-2.52-6.182-3.787-10.594-3.787c-4.949,0-8.79,1.483-11.559,4.466c-2.769,2.984-4.163,7.092-4.163,12.328
	c0,5.306,1.394,9.414,4.163,12.362S378.464,325.144,383.413,325.144z M382.52,358.194c-7.682,0-13.935-1.572-18.759-4.734
	c-4.823-3.162-7.681-7.539-8.575-13.131h12.863c1.483,5.306,6.217,7.95,14.203,7.95c5.18,0,9.146-1.197,11.88-3.573
	c2.733-2.376,4.108-5.843,4.108-10.362v-8.039h-0.446c-3.163,6.253-8.933,9.379-17.33,9.379c-5.056,0-9.451-1.125-13.166-3.358
	c-3.735-2.233-6.611-5.378-8.666-9.469c-2.054-4.073-3.091-8.915-3.091-14.506c0-8.396,2.287-15.062,6.843-19.974
	c4.555-4.913,10.809-7.36,18.794-7.36c4.341,0,8.093,0.822,11.255,2.447c3.162,1.644,5.664,4.02,7.503,7.111h3.751v-8.487h12.595
	v12.238h-6.163v40.287c0,7.503-2.394,13.31-7.182,17.418C398.134,356.14,391.327,358.194,382.52,358.194z M334.434,335.684v-53.596
	h12.149v53.596H334.434z M292.779,326.305c4.521,0,8.129-1.286,10.809-3.842c2.679-2.554,4.019-6.02,4.019-10.361v-6.432
	c0-4.341-1.34-7.807-4.019-10.362c-2.68-2.554-6.289-3.841-10.809-3.841c-5.002,0-8.807,1.554-11.434,4.645
	c-2.626,3.09-3.931,7.361-3.931,12.774c0,5.412,1.305,9.683,3.931,12.772C283.972,324.75,287.777,326.305,292.779,326.305z
	 M290.725,336.756c-8.165,0-14.435-2.536-18.848-7.593c-4.413-5.056-6.61-11.827-6.61-20.276c0-8.522,2.162-15.293,6.485-20.332
	c4.306-5.02,10.272-7.539,17.9-7.539c8.397,0,14.257,3.037,17.598,9.111h0.357V260.65h12.148v62.796h6.074v12.237h-12.595v-8.485
	h-3.751c-1.841,3.091-4.324,5.466-7.45,7.092C298.907,335.934,295.138,336.756,290.725,336.756z"/>
<rect x="334.434" y="254.929" fill-rule="evenodd" clip-rule="evenodd" fill="#E8AB4A" width="12.149" height="12.149"/>
<rect x="424.8" y="261.768" fill-rule="evenodd" clip-rule="evenodd" fill="#EB4254" width="12.147" height="12.148"/>
<rect x="577.9" y="248.506" fill-rule="evenodd" clip-rule="evenodd" fill="#544AE8" width="12.148" height="12.149"/>
<rect x="235.615" y="333.232" fill-rule="evenodd" clip-rule="evenodd" fill="#FFA600" width="10.938" height="10.938"/>
<rect x="235.615" y="305.185" fill-rule="evenodd" clip-rule="evenodd" fill="#FF4A61" width="10.938" height="10.937"/>
<rect x="235.615" y="263.113" fill-rule="evenodd" clip-rule="evenodd" fill="#7800DE" width="10.938" height="10.937"/>
<rect x="221.59" y="305.185" fill-rule="evenodd" clip-rule="evenodd" fill="#FF4A61" width="10.938" height="10.937"/>
<rect x="221.59" y="291.16" fill-rule="evenodd" clip-rule="evenodd" fill="#E80094" width="10.938" height="10.938"/>
<rect x="165.495" y="305.185" fill-rule="evenodd" clip-rule="evenodd" fill="#FF4A61" width="10.937" height="10.937"/>
<rect x="165.495" y="291.16" fill-rule="evenodd" clip-rule="evenodd" fill="#E80094" width="10.937" height="10.938"/>
<rect x="179.519" y="347.257" fill-rule="evenodd" clip-rule="evenodd" fill="#EDCF00" width="10.937" height="10.937"/>
<rect x="179.519" y="333.232" fill-rule="evenodd" clip-rule="evenodd" fill="#FFA600" width="10.937" height="10.938"/>
<rect x="179.519" y="305.185" fill-rule="evenodd" clip-rule="evenodd" fill="#FF4A61" width="10.937" height="10.937"/>
<rect x="179.519" y="291.16" fill-rule="evenodd" clip-rule="evenodd" fill="#E80094" width="10.937" height="10.938"/>
<rect x="179.519" y="277.136" fill-rule="evenodd" clip-rule="evenodd" fill="#B500C2" width="10.937" height="10.937"/>
<rect x="179.519" y="263.113" fill-rule="evenodd" clip-rule="evenodd" fill="#7800DE" width="10.937" height="10.937"/>
<rect x="193.543" y="347.257" fill-rule="evenodd" clip-rule="evenodd" fill="#EDCF00" width="10.937" height="10.937"/>
<rect x="193.543" y="291.16" fill-rule="evenodd" clip-rule="evenodd" fill="#E80094" width="10.937" height="10.938"/>
<rect x="193.543" y="277.136" fill-rule="evenodd" clip-rule="evenodd" fill="#B500C2" width="10.937" height="10.937"/>
<rect x="193.543" y="263.113" fill-rule="evenodd" clip-rule="evenodd" fill="#7800DE" width="10.937" height="10.937"/>
<rect x="193.543" y="249.088" fill-rule="evenodd" clip-rule="evenodd" fill="#2E00E3" width="10.937" height="10.938"/>
<rect x="207.567" y="305.185" fill-rule="evenodd" clip-rule="evenodd" fill="#FF4A61" width="10.936" height="10.937"/>
<rect x="207.567" y="291.16" fill-rule="evenodd" clip-rule="evenodd" fill="#E80094" width="10.936" height="10.938"/>
<rect x="207.567" y="277.136" fill-rule="evenodd" clip-rule="evenodd" fill="#B500C2" width="10.936" height="10.937"/>
<rect x="218.789" y="237.082" fill-rule="evenodd" clip-rule="evenodd" fill="#2E00E3" width="10.937" height="10.937"/>
<rect x="221.59" y="333.232" fill-rule="evenodd" clip-rule="evenodd" fill="#FFA600" width="10.938" height="10.938"/>
<rect x="221.59" y="347.257" fill-rule="evenodd" clip-rule="evenodd" fill="#EDCF00" width="10.938" height="10.937"/>
<rect x="165.495" y="333.232" fill-rule="evenodd" clip-rule="evenodd" fill="#FFA600" width="10.937" height="10.938"/>
<rect x="235.615" y="319.209" fill-rule="evenodd" clip-rule="evenodd" fill="#FF8040" width="10.938" height="10.937"/>
<rect x="165.495" y="319.209" fill-rule="evenodd" clip-rule="evenodd" fill="#FF8040" width="10.937" height="10.937"/>
<rect x="179.519" y="319.209" fill-rule="evenodd" clip-rule="evenodd" fill="#FF8040" width="10.937" height="10.937"/>
<rect x="207.567" y="319.209" fill-rule="evenodd" clip-rule="evenodd" fill="#FF8040" width="10.936" height="10.937"/>
<rect x="221.59" y="319.209" fill-rule="evenodd" clip-rule="evenodd" fill="#FF8040" width="10.938" height="10.937"/>
</svg>
